<svg version="1.1" viewBox="0 0 640 400" xmlns="http://www.w3.org/2000/svg" xmlns:xlink="http://www.w3.org/1999/xlink" xmlns:svgjs="http://svgjs.dev/svgjs" matcher="0.08120942086124172">
	<g viewBox="0 0 640 400" matcher="0.08120942086124172">
		<g matcher="0.08120942086124172">
			<g matcher="0.08120942086124172">
				<g matcher="0.08120942086124172">
					<svg viewBox="0 0 640 400" data-background-color="#14293a" preserveAspectRatio="xMidYMid meet" height="400" width="640" xmlns="http://www.w3.org/2000/svg" xmlns:xlink="http://www.w3.org/1999/xlink">
						<rect width="640" height="400" x="0" y="0" opacity="1" fill="#14293a" data-fill-palette-color="background" id="background">
						</rect>
						<g id="tight-bounds" transform="matrix(1,0,0,1,122.24000000000001,171.97021684202642)">
							<svg viewBox="0 0 395.52 56.05956631594715" height="56.05956631594715" width="395.52">
								<g>
									<svg viewBox="0 0 503.17436133897223 71.31810395925989" height="56.05956631594715" width="395.52">
										<g>
											<rect width="6.399542502815267" height="71.31810395925989" x="84.50208977119556" y="0" fill="#e9e4de" opacity="1" stroke-width="0" stroke="transparent" fill-opacity="1" class="rect-r-0" data-fill-palette-color="primary" rx="1%" id="r-0" data-palette-color="#e9e4de">
											</rect>
										</g>
										<g transform="matrix(1,0,0,1,107.65436133897225,0.17740821880412483)">
											<svg viewBox="0 0 395.52 70.96328752165164" height="70.96328752165164" width="395.52">
												<g id="textblocktransform">
													<svg viewBox="0 0 395.52 70.96328752165164" height="70.96328752165164" width="395.52" id="textblock">
														<g>
															<svg viewBox="0 0 395.52 70.96328752165164" height="70.96328752165164" width="395.52">
																<g transform="matrix(1,0,0,1,0,0)">
																	<svg width="395.52" viewBox="4.079999923706055 -32.029998779296875 234.30999755859375 42.04084777832031" height="70.96328752165164" data-palette-color="#e9e4de">
																		<path d="M24.1-28.98Q24.93-28.98 25.28-28.6 25.63-28.22 25.63-27.32L25.63-27.32Q25.63-26.71 25.39-26.37L25.39-26.37 9.2-3.32 22.19-3.32 22.19-9.89Q22.19-10.74 22.61-11.11 23.02-11.47 24.02-11.47L24.02-11.47Q25.02-11.47 25.44-11.11 25.85-10.74 25.85-9.89L25.85-9.89 25.85-1.66Q25.85-0.76 25.5-0.38 25.15 0 24.32 0L24.32 0 5.62 0Q4.79 0 4.43-0.38 4.08-0.76 4.08-1.66L4.08-1.66Q4.08-2.2 4.42-2.71L4.42-2.71 20.51-25.66 8.25-25.66 8.25-19.58Q8.25-18.73 7.84-18.36 7.42-17.99 6.42-17.99L6.42-17.99Q5.42-17.99 5-18.36 4.59-18.73 4.59-19.58L4.59-19.58 4.59-27.32Q4.59-28.22 4.94-28.6 5.3-28.98 6.13-28.98L6.13-28.98 24.1-28.98ZM44.97-23.1Q48.31-23.1 51-21.58 53.68-20.07 55.21-17.37 56.74-14.67 56.74-11.28L56.74-11.28Q56.74-7.89 55.21-5.19 53.68-2.49 51-0.98 48.31 0.54 44.97 0.54L44.97 0.54Q41.62 0.54 38.94-0.98 36.25-2.49 34.73-5.19 33.2-7.89 33.2-11.28L33.2-11.28Q33.2-14.67 34.73-17.37 36.25-20.07 38.94-21.58 41.62-23.1 44.97-23.1L44.97-23.1ZM44.97-19.48Q42.6-19.48 40.81-18.44 39.01-17.41 38.03-15.54 37.06-13.67 37.06-11.28L37.06-11.28Q37.06-8.89 38.03-7.02 39.01-5.15 40.81-4.11 42.6-3.08 44.97-3.08L44.97-3.08Q47.34-3.08 49.13-4.11 50.93-5.15 51.9-7.02 52.88-8.89 52.88-11.28L52.88-11.28Q52.88-13.67 51.9-15.54 50.93-17.41 49.13-18.44 47.34-19.48 44.97-19.48L44.97-19.48ZM75.58-32.03Q76.41-32.03 76.77-31.65 77.12-31.27 77.12-30.37L77.12-30.37 77.12-3.32 84.96-3.32Q85.79-3.32 86.14-2.94 86.49-2.56 86.49-1.66L86.49-1.66Q86.49-0.76 86.14-0.38 85.79 0 84.96 0L84.96 0 65.82 0Q64.99 0 64.63-0.38 64.28-0.76 64.28-1.66L64.28-1.66Q64.28-2.56 64.63-2.94 64.99-3.32 65.82-3.32L65.82-3.32 73.46-3.32 73.46-28.71 66.79-28.71Q65.96-28.71 65.61-29.09 65.25-29.47 65.25-30.37L65.25-30.37Q65.25-31.27 65.61-31.65 65.96-32.03 66.79-32.03L66.79-32.03 75.58-32.03ZM104.92-23.1Q108.27-23.1 110.95-21.58 113.64-20.07 115.17-17.37 116.69-14.67 116.69-11.28L116.69-11.28Q116.69-7.89 115.17-5.19 113.64-2.49 110.95-0.98 108.27 0.54 104.92 0.54L104.92 0.54Q101.58 0.54 98.89-0.98 96.21-2.49 94.68-5.19 93.16-7.89 93.16-11.28L93.16-11.28Q93.16-14.67 94.68-17.37 96.21-20.07 98.89-21.58 101.58-23.1 104.92-23.1L104.92-23.1ZM104.92-19.48Q102.56-19.48 100.76-18.44 98.97-17.41 97.99-15.54 97.01-13.67 97.01-11.28L97.01-11.28Q97.01-8.89 97.99-7.02 98.97-5.15 100.76-4.11 102.56-3.08 104.92-3.08L104.92-3.08Q107.29-3.08 109.09-4.11 110.88-5.15 111.86-7.02 112.83-8.89 112.83-11.28L112.83-11.28Q112.83-13.67 111.86-15.54 110.88-17.41 109.09-18.44 107.29-19.48 104.92-19.48L104.92-19.48ZM135.76-28.98Q138.81-28.98 140.99-27.95 143.18-26.93 144.31-25.07 145.45-23.22 145.45-20.75L145.45-20.75Q145.45-17.97 143.64-16.04 141.84-14.11 138.69-13.4L138.69-13.4Q140.05-12.87 140.96-11.67L140.96-11.67Q141.71-10.67 142.25-9.68 142.79-8.69 143.45-7.25L143.45-7.25Q144.13-5.76 144.5-5.08L144.5-5.08Q145.45-3.32 146.69-3.32L146.69-3.32 147.38-3.32Q148.21-3.32 148.56-2.94 148.92-2.56 148.92-1.66L148.92-1.66Q148.92-0.76 148.56-0.38 148.21 0 147.38 0L147.38 0 145.62 0Q144.16 0 143.14-0.77 142.13-1.54 141.18-3.39L141.18-3.39Q140.64-4.47 139.86-6.23L139.86-6.23Q139.13-7.84 138.67-8.73 138.22-9.62 137.59-10.5L137.59-10.5Q136.86-11.52 135.83-12.05 134.8-12.57 133.36-12.57L133.36-12.57 130.04-12.57 130.04-3.32 133.22-3.32Q134.05-3.32 134.4-2.94 134.76-2.56 134.76-1.66L134.76-1.66Q134.76-0.76 134.4-0.38 134.05 0 133.22 0L133.22 0 123.4 0Q122.57 0 122.22-0.38 121.87-0.76 121.87-1.66L121.87-1.66Q121.87-2.56 122.22-2.94 122.57-3.32 123.4-3.32L123.4-3.32 126.38-3.32 126.38-25.66 123.4-25.66Q122.57-25.66 122.22-26.04 121.87-26.42 121.87-27.32L121.87-27.32Q121.87-28.22 122.22-28.6 122.57-28.98 123.4-28.98L123.4-28.98 135.76-28.98ZM130.04-25.66L130.04-15.89 135-15.89Q141.59-15.89 141.59-20.75L141.59-20.75Q141.59-23.1 139.93-24.38 138.27-25.66 135.24-25.66L135.24-25.66 130.04-25.66ZM177.11-22.56Q177.94-22.56 178.3-22.18 178.65-21.8 178.65-20.9L178.65-20.9Q178.65-20 178.3-19.62 177.94-19.24 177.11-19.24L177.11-19.24 175.6-19.24 165.61 1.22Q164.03 4.47 162.51 6.32 161 8.18 159.11 9.05 157.21 9.91 154.5 10.01L154.5 10.01Q153.65 10.03 153.19 9.58 152.72 9.13 152.72 7.98L152.72 7.98Q152.72 6.4 154.02 6.32L154.02 6.32Q156.36 6.2 157.74 5.54 159.12 4.88 160.28 3.28 161.44 1.68 163.12-1.71L163.12-1.71 154.19-19.24 152.65-19.24Q151.82-19.24 151.46-19.62 151.11-20 151.11-20.9L151.11-20.9Q151.11-21.8 151.46-22.18 151.82-22.56 152.65-22.56L152.65-22.56 161.29-22.56Q162.12-22.56 162.48-22.18 162.83-21.8 162.83-20.9L162.83-20.9Q162.83-20 162.48-19.62 162.12-19.24 161.29-19.24L161.29-19.24 158.17-19.24 165.05-5.52 171.62-19.24 169.45-19.24Q168.62-19.24 168.26-19.62 167.91-20 167.91-20.9L167.91-20.9Q167.91-21.8 168.26-22.18 168.62-22.56 169.45-22.56L169.45-22.56 177.11-22.56ZM194.96-23.1Q199.55-23.1 201.84-21.04 204.14-18.99 204.14-14.97L204.14-14.97 204.14-5.25Q204.14-3.32 205.75-3.32L205.75-3.32 206.6-3.32Q207.43-3.32 207.79-2.94 208.14-2.56 208.14-1.66L208.14-1.66Q208.14-0.76 207.79-0.38 207.43 0 206.6 0L206.6 0 205.04 0Q203.45 0 202.32-0.79 201.18-1.59 200.84-3.13L200.84-3.13Q198.84-1.37 196.51-0.42 194.17 0.54 191.56 0.54L191.56 0.54Q189.1 0.54 187.2-0.31 185.31-1.15 184.24-2.76 183.16-4.37 183.16-6.59L183.16-6.59Q183.16-10.45 185.92-12.29 188.68-14.14 193.05-14.14L193.05-14.14Q196.93-14.14 200.47-12.89L200.47-12.89 200.47-14.97Q200.47-17.33 199.14-18.44 197.81-19.56 194.86-19.56L194.86-19.56Q193.03-19.56 191.05-19.04 189.07-18.53 187.29-17.63L187.29-17.63Q186.87-17.41 186.53-17.41L186.53-17.41Q185.73-17.41 185.19-18.58L185.19-18.58Q184.92-19.17 184.92-19.56L184.92-19.56Q184.92-20.41 185.82-20.87L185.82-20.87Q187.88-21.95 190.23-22.52 192.59-23.1 194.96-23.1L194.96-23.1ZM193.08-10.69Q190.27-10.69 188.64-9.73 187.02-8.76 187.02-6.67L187.02-6.67Q187.02-4.88 188.25-3.89 189.49-2.91 191.71-2.91L191.71-2.91Q196.57-2.91 200.47-6.93L200.47-6.93 200.47-9.59Q198.81-10.13 196.91-10.41 195-10.69 193.08-10.69L193.08-10.69ZM227.59-23.1Q229.82-23.1 231.45-22.13 233.09-21.17 233.97-19.36 234.85-17.55 234.85-15.14L234.85-15.14 234.85-3.32 236.85-3.32Q237.68-3.32 238.03-2.94 238.39-2.56 238.39-1.66L238.39-1.66Q238.39-0.76 238.03-0.38 237.68 0 236.85 0L236.85 0 228.94 0Q228.11 0 227.75-0.38 227.4-0.76 227.4-1.66L227.4-1.66Q227.4-2.56 227.75-2.94 228.11-3.32 228.94-3.32L228.94-3.32 231.18-3.32 231.18-14.77Q231.18-16.94 230.18-18.21 229.18-19.48 227.23-19.48L227.23-19.48Q225.15-19.48 223.36-18.29 221.56-17.09 220.49-14.99 219.42-12.89 219.42-10.3L219.42-10.3 219.42-3.32 221.66-3.32Q222.49-3.32 222.85-2.94 223.2-2.56 223.2-1.66L223.2-1.66Q223.2-0.76 222.85-0.38 222.49 0 221.66 0L221.66 0 213.75 0Q212.92 0 212.57-0.38 212.21-0.76 212.21-1.66L212.21-1.66Q212.21-2.56 212.57-2.94 212.92-3.32 213.75-3.32L213.75-3.32 215.75-3.32 215.75-19.24 213.26-19.24Q212.43-19.24 212.08-19.62 211.73-20 211.73-20.9L211.73-20.9Q211.73-21.8 212.08-22.18 212.43-22.56 213.26-22.56L213.26-22.56 217.63-22.56Q218.46-22.56 218.82-22.18 219.17-21.8 219.17-20.9L219.17-20.9 219.17-17.97Q220.78-20.46 222.94-21.78 225.1-23.1 227.59-23.1L227.59-23.1Z" opacity="1" transform="matrix(1,0,0,1,0,0)" fill="#e9e4de" class="wordmark-text-0" data-fill-palette-color="primary" id="text-0">
																		</path>
																	</svg>
																</g>
															</svg>
														</g>
													</svg>
												</g>
											</svg>
										</g>
										<g transform="matrix(1,0,0,1,0,0.17740821880412483)">
											<svg viewBox="0 0 67.74936070623413 70.96328752165164" height="70.96328752165164" width="67.74936070623413">
												<g>
													<svg version="1.0" xmlns="http://www.w3.org/2000/svg" xmlns:xlink="http://www.w3.org/1999/xlink" x="0" y="0" viewBox="0 0 95.47100067138672 100" enable-background="new 0 0 95.471 100" xml:space="preserve" height="70.96328752165164" width="67.74936070623413" class="icon-icon-0" data-fill-palette-color="accent" id="icon-0">
														<path d="M47.735 0C47.652 2.825 45.997 13.412 27.936 30.934 10.554 47.797 2.439 49.824 0 50 2.439 50.178 10.554 52.204 27.936 69.066 45.997 86.589 47.652 97.177 47.735 100 47.818 97.177 49.474 86.589 67.533 69.066 84.917 52.204 93.031 50.178 95.471 50 93.032 49.824 84.917 47.797 67.533 30.934 49.475 13.412 47.819 2.825 47.735 0" fill="#99abc1" data-fill-palette-color="accent">
														</path>
													</svg>
												</g>
											</svg>
										</g>
									</svg>
								</g>
								<defs>
								</defs>
							</svg>
							<rect width="395.52" height="56.05956631594715" fill="none" stroke="none" visibility="hidden">
							</rect>
						</g>
					</svg>
				</g>
			</g>
		</g>
	</g>
	<rect width="322.8873926717251" height="67.78064159844249" x="201.8671375798722" y="167.10967140075877" rx="2.5" ry="2.5" fill="transparent" class="logo-element-hover-target">
	</rect>
	<rect width="65.25432433107028" height="67.78064159844249" x="117.24000973442492" y="167.10967140075877" rx="2.5" ry="2.5" fill="transparent" class="logo-element-hover-target">
	</rect>
</svg>
